<?xml version="1.0" encoding="UTF-8" standalone="no"?>
<!-- Created with Inkscape (http://www.inkscape.org/) -->

<svg
   version="1.1"
   id="svg1"
   width="380"
   height="506.66666"
   viewBox="0 0 380 506.66666"
   sodipodi:docname="logo.svg"
   inkscape:version="1.4 (e7c3feb100, 2024-10-09)"
   inkscape:export-filename="logo.png"
   inkscape:export-xdpi="113.68"
   inkscape:export-ydpi="113.68"
   xmlns:inkscape="http://www.inkscape.org/namespaces/inkscape"
   xmlns:sodipodi="http://sodipodi.sourceforge.net/DTD/sodipodi-0.dtd"
   xmlns:xlink="http://www.w3.org/1999/xlink"
   xmlns="http://www.w3.org/2000/svg"
   xmlns:svg="http://www.w3.org/2000/svg">
  <defs
     id="defs1">
    <linearGradient
       id="linearGradient655"
       inkscape:collect="always">
      <stop
         style="stop-color:#0c5aa5;stop-opacity:1;"
         offset="0"
         id="stop655" />
      <stop
         style="stop-color:#0077d2;stop-opacity:1;"
         offset="1"
         id="stop656" />
    </linearGradient>
    <linearGradient
       inkscape:collect="always"
       xlink:href="#linearGradient655"
       id="linearGradient656"
       x1="852.33313"
       y1="521.62189"
       x2="852.33313"
       y2="142.14946"
       gradientUnits="userSpaceOnUse" />
  </defs>
  <sodipodi:namedview
     id="namedview1"
     pagecolor="#ffffff"
     bordercolor="#000000"
     borderopacity="0.25"
     inkscape:showpageshadow="2"
     inkscape:pageopacity="0.0"
     inkscape:pagecheckerboard="0"
     inkscape:deskcolor="#d1d1d1"
     inkscape:zoom="2"
     inkscape:cx="217"
     inkscape:cy="436.5"
     inkscape:window-width="2560"
     inkscape:window-height="1341"
     inkscape:window-x="0"
     inkscape:window-y="0"
     inkscape:window-maximized="1"
     inkscape:current-layer="g650"
     showguides="true"
     showgrid="false"
     inkscape:export-bgcolor="#ffffff00">
    <inkscape:grid
       id="grid642"
       units="px"
       originx="0"
       originy="0"
       spacingx="1"
       spacingy="1"
       empcolor="#0099e5"
       empopacity="0.30196078"
       color="#0099e5"
       opacity="0.14901961"
       empspacing="5"
       enabled="true"
       visible="false"
       snapvisiblegridlinesonly="true" />
  </sodipodi:namedview>
  <g
     inkscape:groupmode="layer"
     inkscape:label="Image"
     id="g1">
    <g
       id="g650"
       transform="translate(-662.0696,-78.104834)"
       style="opacity:1"
       inkscape:label="logo">
      <rect
         style="opacity:1;fill:#ffffff"
         id="rect1"
         width="305"
         height="368"
         x="700.06958"
         y="188.10483"
         inkscape:label="background" />
      <path
         id="path639"
         style="fill:url(#linearGradient656);stroke-width:3.52961"
         d="m 852.33332,79 c -104.78909,-9e-5 -189.73723,85.09933 -189.73632,190.07422 0.0764,1.23977 0.0173,2.48 0.0117,3.7168 v 0 290.49219 0.32812 c 0.0897,11.70774 9.60246,21.15336 21.31055,21.16016 h 336.83984 c 11.6284,-0.0118 21.1032,-9.33811 21.2988,-20.96484 v -291.01563 0 c 0.012,-1.22631 0.012,-2.44969 0.012,-3.7168 C 1042.0706,164.09933 957.12242,78.99991 852.33332,79 Z m -78.81054,109.33399 c 35.22046,7.7e-4 63.7718,28.55298 63.77148,63.77344 v 1.82617 3.40234 66.125 h 29.44922 v -66.39843 -3.12891 -1.82617 c -3.2e-4,-35.22046 28.55102,-63.77267 63.77148,-63.77344 35.22123,-3.2e-4 63.77376,28.55221 63.77344,63.77344 h 0.002 v 146.44531 c -5.5e-4,78.57308 -63.6965,142.26901 -142.26958,142.26953 -78.57383,5.3e-4 -142.27093,-63.6957 -142.27148,-142.26953 V 252.10743 c -3.2e-4,-35.22122 28.55221,-63.77376 63.77344,-63.77344 z"
         inkscape:label="body"
         sodipodi:nodetypes="ccccccccccccccsccccccsccccsccc" />
      <path
         id="path645-0"
         style="opacity:1;fill:#ffc700;fill-opacity:1;stroke-width:1.11585"
         d="M 994.2904,388.76563 C 978.42648,454.30305 919.45072,500.46928 852.02082,500.62696 785.00525,500.48554 726.02474,454.8505 709.74934,389.84113 c -0.29767,2.90046 0.1189,5.79834 0,8.71161 5.5e-4,78.57383 63.69765,142.27006 142.27148,142.26953 78.57307,-5.4e-4 142.26899,-63.69646 142.26954,-142.26953 -0.0142,-3.28143 0.24102,-6.51451 4e-5,-9.78711 z"
         inkscape:label="yellow"
         sodipodi:nodetypes="ccccscc" />
      <g
         id="g611"
         inkscape:label="eyes"
         style="fill:#000000;fill-opacity:1"
         transform="translate(832.87352,125.31128)">
        <circle
           style="fill:#000000;fill-opacity:1;stroke-width:0.576474"
           id="path610-3-1"
           cx="98.656364"
           cy="142.24486"
           r="31.016087"
           inkscape:label="eye_right" />
        <circle
           style="fill:#000000;fill-opacity:1;stroke-width:0.576474"
           id="path610-3-1-3"
           cx="-59.736801"
           cy="142.24486"
           r="31.016087"
           inkscape:label="eye_left" />
      </g>
      <g
         id="g649"
         transform="translate(852.01982,130.40039)"
         inkscape:label="nose"
         style="display:inline;fill:#ff8080;fill-opacity:0.46235">
        <path
           d="m 63.98242,246.07031 a 63.772869,63.772869 0 0 0 -63.66797,-61.00976 63.772869,63.772869 0 0 0 -63.5,61.33984 A 142.27052,142.27052 0 0 0 0,261.32617 142.27052,142.27052 0 0 0 63.98242,246.07031 Z"
           style="opacity:1;fill:#ef8506;fill-opacity:1;stroke-width:1.1853"
           id="path650"
           inkscape:label="nose_up" />
        <path
           d="M 63.98242,246.07031 A 142.27052,142.27052 0 0 1 0,261.32617 a 142.27052,142.27052 0 0 1 -63.18555,-14.92578 63.772869,63.772869 0 0 0 -0.27343,2.43359 63.772869,63.772869 0 0 0 63.77343,63.77149 63.772869,63.772869 0 0 0 63.77149,-63.77149 63.772869,63.772869 0 0 0 -0.10352,-2.76367 z"
           style="opacity:1;fill:#bd5f0a;fill-opacity:1;stroke-width:1.1853"
           id="path651"
           inkscape:label="nose_down" />
      </g>
    </g>
  </g>
</svg>
