<?xml version="1.0" encoding="UTF-8" standalone="no"?>
<!DOCTYPE svg PUBLIC "-//W3C//DTD SVG 20010904//EN"
"http://www.w3.org/TR/2001/REC-SVG-20010904/DTD/svg10.dtd">
<svg
   id="debian_logo"
   width="584"
   height="195.699"
   viewBox="0 0 584 195.699"
   xmlns="http://www.w3.org/2000/svg"
   xmlns:sodipodi="http://sodipodi.sourceforge.net/DTD/sodipodi-0.dtd"
   xmlns:inkscape="http://www.inkscape.org/namespaces/inkscape"
   xmlns:xlink="http://www.w3.org/1999/xlink"
   sodipodi:version="0.32"
   inkscape:version="0.38.1"
   sodipodi:docname="debian.svg"
   sodipodi:docbase="/mnt/Storage 1/development/graphics/svg">
  <sodipodi:namedview
     id="base"
     pagecolor="#ffffff"
     bordercolor="#666666"
     borderopacity="1.0"
     inkscape:pageopacity="0.0"
     inkscape:pageshadow="2"
     inkscape:zoom="1.2050514"
     inkscape:cx="233.60000"
     inkscape:cy="78.279595"
     inkscape:window-width="640"
     inkscape:window-height="497"
     inkscape:window-x="6"
     inkscape:window-y="75" />
  <defs
     id="defs828" />
  <g
     id="g845"
     transform="matrix(0.970420,0.000000,0.000000,0.970420,5.758268,3.843935)">
    <path
       class="st1"
       d="M72.323,95.531c-0.386,0.389-0.386,40.221-0.775,50.666c-0.772,8.507-1.546,26.686-19.336,26.686    c-18.564,0-22.82-21.271-24.366-30.17c-1.547-10.444-1.547-18.952-1.547-22.431c0-11.987,0.386-45.252,28.621-45.252    c8.507,0,13.148,2.323,17.017,4.257L72.323,95.531z M0,124.924c0,70.002,37.128,70.002,42.929,70.002    c15.47,0,25.139-8.123,29.394-22.821l0.773,22.047c4.641-0.388,9.283-0.776,17.017-0.776c2.708,0,5.028,0,6.962,0.388    c1.933,0,3.868,0,6.188,0.388c-3.868-8.122-6.962-25.914-6.962-64.587c0-37.902,0-102.103,3.095-121.443    c-8.896,4.255-16.631,6.962-33.649,8.51c6.962,7.349,6.962,10.83,6.962,43.704c-4.642-1.549-10.83-3.096-20.885-3.096    C7.347,57.24,0,95.92,0,124.924z"
       id="path830"
       style="" />
    <path
       class="st1"
       d="M134.977,112.16c0.386-20.498,4.642-39.064,22.045-39.064c19.338,0,20.885,21.274,20.499,39.064H134.977z     M202.273,114.867c0-29.392-5.801-58.015-42.545-58.015c-51.051,0-51.051,56.469-51.051,68.457    c0,50.278,22.818,70.39,60.721,70.39c17.017,0,25.139-2.704,29.779-3.869c-0.385-8.894,1.161-14.698,2.321-22.428    c-5.026,3.481-11.603,7.73-26.685,7.73c-38.675,0-39.451-35.58-39.451-47.567h66.136L202.273,114.867z"
       id="path831"
       style="" />
    <path
       class="st1"
       d="M283.104,125.309c0,23.205-4.254,54.536-32.874,54.536c-4.254,0-9.281-0.778-12.375-1.547    c-0.386-8.896-0.386-24.369-0.386-42.545c0-21.273,1.932-32.487,3.867-37.902c5.414-17.794,17.017-17.794,19.338-17.794    C279.236,80.057,283.104,105.973,283.104,125.309z M211.555,152.381c0,18.567,0,29.008-2.707,37.129    c10.056,3.866,22.818,6.188,37.902,6.188c9.668,0,37.9,0,52.986-31.327c7.35-14.31,9.668-33.649,9.668-48.344    c0-8.898-0.772-28.623-8.121-40.998c-6.961-11.987-18.179-17.79-30.167-17.79c-23.978,0-30.94,19.725-34.421,30.165    c0-12.763,0-57.238,2.321-79.668c-16.244,7.347-26.299,8.507-37.128,9.668c9.668,3.868,9.668,20.498,9.668,73.87V152.381z"
       id="path832"
       style="" />
    <path
       class="st1"
       d="M357.362,194.152c-5.029-0.776-8.51-1.157-15.859-1.157c-7.733,0-13.148,0.381-18.948,1.157   c2.319-4.642,3.48-6.959,4.254-23.204c0.773-22.047,1.158-81.221-0.389-93.984c-1.546-9.283-3.479-10.829-6.96-13.148   c20.112-1.935,25.912-3.48,35.58-8.122c-2.319,10.829-2.319,16.632-2.319,33.261   C352.333,174.816,351.948,184.096,357.362,194.152z"
       id="path833"
       style="" />
    <path
       class="st1"
       d="M437.032,123.762c-0.384,15.471-0.772,26.686-5.025,35.196c-5.03,11.213-13.926,14.31-20.498,14.31   c-14.697,0-17.794-12.375-17.794-24.366c0-23.593,20.887-25.14,30.169-25.14H437.032z M368.576,154.316   c0,15.47,4.642,31.33,18.567,37.903c6.571,2.707,12.76,2.707,14.694,2.707c22.819,0,30.553-16.629,35.194-27.073   c-0.384,10.829,0,17.405,0.773,26.299c4.643-0.388,8.896-0.776,16.632-0.776c3.869,0,8.123,0.388,12.375,0.776   c-2.707-4.256-4.252-6.575-5.026-16.632c-0.388-9.282-0.388-18.562-0.388-32.099V94.754c0-18.947-5.026-37.514-42.156-37.514   c-24.75,0-39.063,7.35-46.409,11.218c3.093,5.415,5.415,10.053,7.733,20.882c9.668-8.507,22.433-13.149,35.196-13.149   c20.886,0,20.886,13.925,20.886,33.262c-4.642-0.389-8.899-0.777-15.472-0.777C389.462,108.676,368.576,121.058,368.576,154.316z"
       id="path834"
       style="" />
    <path
       class="st1"
       d="M580.521,169.402c0,8.508,0,17.401,3.479,24.75c-5.414-0.388-8.511-1.157-18.567-1.157   c-6.187,0-9.279,0.381-13.918,1.157c0.772-3.095,1.155-4.642,1.931-8.894c0.776-5.414,1.159-24.75,1.159-31.33v-27.074   c0-11.599,0-28.62-0.772-34.418c-0.387-4.254-1.935-15.86-16.243-15.86c-14.312,0-18.953,10.445-20.498,18.955   c-1.935,8.895-1.935,18.178-1.935,54.917c0,32.1,0,34.811,2.707,43.705c-4.252-0.388-9.665-1.157-17.014-1.157   c-6.19,0-10.06,0.381-15.084,1.157c1.935-3.868,2.707-6.19,3.479-20.112c0.39-13.532,1.545-80.832-0.772-96.687   c-1.545-9.671-3.87-11.991-6.576-14.31c20.111-1.161,26.688-4.256,32.874-7.737v26.685c3.093-7.73,9.279-25.139,34.033-25.139   c31.327,0,31.327,22.824,31.717,37.518V169.402z"
       id="path835"
       style="" />
    <path
       class="st0"
       d="M359.297,20.499L338.8,40.998l-20.501-20.499L338.8,0L359.297,20.499z"
       id="path836"
       style="fill:#d70751;fill-opacity:1.0000000;" />
  </g>
</svg>
