<?xml version="1.0" encoding="UTF-8" standalone="no"?>
<svg
   version="1.1"
   width="1350"
   height="1350"
   id="svg30"
   sodipodi:docname="aspectro_usabilidad.svg"
   inkscape:version="1.3.2 (091e20ef0f, 2023-11-25, custom)"
   xmlns:inkscape="http://www.inkscape.org/namespaces/inkscape"
   xmlns:sodipodi="http://sodipodi.sourceforge.net/DTD/sodipodi-0.dtd"
   xmlns="http://www.w3.org/2000/svg"
   xmlns:svg="http://www.w3.org/2000/svg">
  <defs
     id="defs30" />
  <sodipodi:namedview
     id="namedview30"
     pagecolor="#ffffff"
     bordercolor="#000000"
     borderopacity="0.25"
     inkscape:showpageshadow="2"
     inkscape:pageopacity="0.0"
     inkscape:pagecheckerboard="0"
     inkscape:deskcolor="#d1d1d1"
     inkscape:zoom="0.72883455"
     inkscape:cx="459.63793"
     inkscape:cy="644.86515"
     inkscape:window-width="2560"
     inkscape:window-height="1331"
     inkscape:window-x="2560"
     inkscape:window-y="34"
     inkscape:window-maximized="1"
     inkscape:current-layer="g46"
     showguides="false"
     showgrid="false" />
  <g
     id="g59"
     transform="matrix(1.4526041,0,0,1.4513763,-1404.8616,-261.89889)">
    <path
       d="m 1448.3379,266.92578 a 263,263 0 0 0 -261.5547,246.47656 263,263 0 0 1 97.4414,-45.84961 176,176.00009 0 0 1 164.1133,-113.62695 176,176.00009 0 0 1 164.168,112.7207 263,263 0 0 1 98.2519,46.44922 263,263 0 0 0 -262.4199,-246.16992 z"
       style="fill:#4b833a;fill-opacity:0.952651;stroke-width:1.19997"
       id="path34" />
    <path
       d="m 1710.7578,513.0957 a 263,263 0 0 0 -98.2519,-46.44922 176,176.00009 0 0 1 11.832,63.2793 176,176.00009 0 0 1 -3.0566,31.01953 176,176.00009 0 0 1 73.8574,59.65625 263,263 0 0 0 16.1992,-90.67578 263,263 0 0 0 -0.5801,-16.83008 z"
       style="fill:#589bab;fill-opacity:1;stroke-width:1.19997"
       id="path36" />
    <path
       d="m 1710.7578,513.0957 a 263,263 0 0 1 0.5801,16.83008 263,263 0 0 1 -16.1992,90.67578 176,176.00009 0 0 1 32.6504,101.9375 176,176.00009 0 0 1 -176,176 176,176.00009 0 0 1 -11.2715,-1.10937 263,263 0 0 1 -92.1797,65.95312 263,263 0 0 0 103.4512,22.15625 263,263 0 0 0 263,-263 263,263 0 0 0 -104.0313,-209.44336 z"
       style="fill:#2d366c;stroke-width:1.19997"
       id="path35" />
    <path
       d="m 1356.1563,897.42969 a 263,263 0 0 0 92.1816,65.95312 263,263 0 0 0 92.1797,-65.95312 176,176.00009 0 0 1 -92.1817,-33.20703 176,176.00009 0 0 1 -92.1796,33.20703 z"
       style="fill:#8b3877;fill-opacity:1;stroke-width:1.19997"
       id="path58" />
    <path
       d="m 1201.6875,620.92969 a 176,176.00009 0 0 1 73.7168,-59.85547 176,176.00009 0 0 1 -3.0664,-31.14844 176,176.00009 0 0 1 11.8867,-62.37305 263,263 0 0 0 -97.4414,45.84961 263,263 0 0 0 -1.4453,16.52344 263,263 0 0 0 16.3496,91.00391 z"
       style="fill:#b6a62c;fill-opacity:1;stroke-width:1.19997"
       id="path48" />
    <path
       d="m 1201.6875,620.92969 a 263,263 0 0 1 -16.3496,-91.00391 263,263 0 0 1 1.4453,-16.52344 263,263 0 0 0 -104.8965,209.13672 263,263 0 0 0 263,263 263,263 0 0 0 103.4512,-22.15625 263,263 0 0 1 -92.1816,-65.95312 176,176.00009 0 0 1 -11.2696,1.10937 176,176.00009 0 0 1 -176,-176 176,176.00009 0 0 1 32.8008,-101.60937 z"
       style="fill:#9b2121;stroke-width:1.19997"
       id="path47" />
    <path
       d="m 1290.2344,739.06445 a 263,263 0 0 1 -1.4453,-16.52539 263,263 0 0 1 16.3496,-91.0039 176,176.00009 0 0 1 -29.7344,-70.46094 176,176.00009 0 0 0 -73.7168,59.85547 263,263 0 0 0 88.5469,118.13476 z"
       style="fill:#d67929;fill-opacity:1;stroke-width:0.803022"
       id="path46" />
    <path
       d="m 1290.2344,739.06445 a 263,263 0 0 1 -88.5469,-118.13476 176,176.00009 0 0 0 -32.8008,101.60937 176,176.00009 0 0 0 176,176 176,176.00009 0 0 0 11.2696,-1.10937 263,263 0 0 1 -65.9219,-158.36524 z"
       style="fill:#bf1c24;stroke-width:0.803022"
       id="path45" />
    <path
       d="m 1387.6758,784.91406 a 176,176.00009 0 0 1 -11.8867,-62.375 176,176.00009 0 0 1 3.0664,-31.14648 176,176.00009 0 0 1 -73.7168,-59.85742 263,263 0 0 0 -16.3496,91.0039 263,263 0 0 0 1.4453,16.52539 263,263 0 0 0 97.4414,45.84961 z"
       style="fill:#e47c62;fill-opacity:1;stroke-width:0.803022"
       id="path44" />
    <path
       d="m 1387.6758,784.91406 a 263,263 0 0 1 -97.4414,-45.84961 263,263 0 0 0 65.9219,158.36524 176,176.00009 0 0 0 92.1796,-33.20703 176,176.00009 0 0 1 -60.6601,-79.3086 z"
       style="fill:#dc2f82;fill-opacity:1;stroke-width:0.803022"
       id="path43" />
    <path
       d="m 1305.1387,631.53516 a 263,263 0 0 1 51.6992,-84.56836 176,176.00009 0 0 0 -11.9512,-0.42774 176,176.00009 0 0 0 -69.4824,14.53516 176,176.00009 0 0 0 29.7344,70.46094 z"
       style="fill:#d4c32a;fill-opacity:1;stroke-width:0.803022"
       id="path57" />
    <path
       d="m 1378.8555,691.39258 a 176,176.00009 0 0 1 69.8867,-110.8711 176,176.00009 0 0 0 -91.9043,-33.55468 263,263 0 0 0 -51.6992,84.56836 176,176.00009 0 0 0 73.7168,59.85742 z"
       style="fill:#f7f491;fill-opacity:1;stroke-width:0.803022"
       id="path56" />
    <path
       d="m 1449.3887,481.20508 a 263,263 0 0 0 -92.5508,65.76172 176,176.00009 0 0 1 91.9043,33.55468 176,176.00009 0 0 1 92.3672,-32.93164 263,263 0 0 0 -91.7207,-66.38476 z"
       style="fill:#9ccd78;fill-opacity:1;stroke-width:0.803022"
       id="path52" />
    <path
       d="m 1449.3887,481.20508 a 263,263 0 0 1 91.7207,66.38476 176,176.00009 0 0 1 10.6797,-1.05078 176,176.00009 0 0 1 69.4922,14.40625 176,176.00009 0 0 0 3.0566,-31.01953 176,176.00009 0 0 0 -11.832,-63.2793 263,263 0 0 0 -60.7168,-7.10742 263,263 0 0 0 -102.4004,21.66602 z"
       style="fill:#52a472;fill-opacity:1;stroke-width:0.803022"
       id="path51" />
    <path
       d="m 1284.2246,467.55273 a 176,176.00009 0 0 0 -11.8867,62.37305 176,176.00009 0 0 0 3.0664,31.14844 176,176.00009 0 0 1 69.4824,-14.53516 176,176.00009 0 0 1 11.9512,0.42774 263,263 0 0 1 92.5508,-65.76172 263,263 0 0 0 -104.502,-21.66602 263,263 0 0 0 -60.6621,8.01367 z"
       style="fill:#92b635;fill-opacity:1;stroke-width:0.803022"
       id="path50" />
    <path
       d="m 1284.2246,467.55273 a 263,263 0 0 1 60.6621,-8.01367 263,263 0 0 1 104.502,21.66602 263,263 0 0 1 102.4004,-21.66602 263,263 0 0 1 60.7168,7.10742 176,176.00009 0 0 0 -164.168,-112.7207 176,176.00009 0 0 0 -164.1133,113.62695 z"
       style="fill:#50953c;stroke-width:0.803022"
       id="path49" />
    <path
       d="m 1517.9785,691.30664 a 176,176.00009 0 0 0 -69.2363,-110.78516 176,176.00009 0 0 0 -69.8867,110.8711 176,176.00009 0 0 0 69.4824,14.5332 176,176.00009 0 0 0 69.6406,-14.61914 z"
       style="fill:#ffffff;stroke-width:0.803022"
       id="path55" />
    <path
       d="m 1541.1094,547.58984 a 176,176.00009 0 0 0 -92.3672,32.93164 176,176.00009 0 0 1 69.2363,110.78516 176,176.00009 0 0 0 73.6055,-59.83203 263,263 0 0 0 -50.4746,-83.88477 z"
       style="fill:#c3e3d8;fill-opacity:1;stroke-width:0.803022"
       id="path54" />
    <path
       d="m 1541.1094,547.58984 a 263,263 0 0 1 50.4746,83.88477 176,176.00009 0 0 0 29.6973,-70.5293 176,176.00009 0 0 0 -69.4922,-14.40625 176,176.00009 0 0 0 -10.6797,1.05078 z"
       style="fill:#64bacd;fill-opacity:1;stroke-width:0.803022"
       id="path53" />
    <path
       d="m 1508.998,784.91406 a 176,176.00009 0 0 0 11.8887,-62.375 176,176.00009 0 0 0 -2.9082,-31.23242 176,176.00009 0 0 1 -69.6406,14.61914 176,176.00009 0 0 1 -69.4824,-14.5332 176,176.00009 0 0 0 -3.0664,31.14648 176,176.00009 0 0 0 11.8867,62.375 263,263 0 0 0 60.6621,8.01172 263,263 0 0 0 60.6601,-8.01172 z"
       style="fill:#ddbfda;fill-opacity:1;stroke-width:0.803022"
       id="path42" />
    <path
       d="m 1508.998,784.91406 a 263,263 0 0 1 -60.6601,8.01172 263,263 0 0 1 -60.6621,-8.01172 176,176.00009 0 0 0 60.6601,79.3086 176,176.00009 0 0 0 60.6621,-79.3086 z"
       style="fill:#a43b8b;fill-opacity:1;stroke-width:0.803022"
       id="path41" />
    <path
       d="m 1606.4414,739.06445 a 263,263 0 0 0 1.4453,-16.52539 263,263 0 0 0 -16.3027,-91.06445 176,176.00009 0 0 1 -73.6055,59.83203 176,176.00009 0 0 1 2.9082,31.23242 176,176.00009 0 0 1 -11.8887,62.375 263,263 0 0 0 97.4434,-45.84961 z"
       style="fill:#6c8ac3;fill-opacity:1;stroke-width:0.803022"
       id="path40" />
    <path
       d="m 1606.4414,739.06445 a 263,263 0 0 1 -97.4434,45.84961 176,176.00009 0 0 1 -60.6621,79.3086 176,176.00009 0 0 0 92.1817,33.20703 263,263 0 0 0 65.9238,-158.36524 z"
       style="fill:#593a8b;fill-opacity:1;stroke-width:0.803022"
       id="path39" />
    <path
       d="m 1695.1387,620.60156 a 176,176.00009 0 0 0 -73.8574,-59.65625 176,176.00009 0 0 1 -29.6973,70.5293 263,263 0 0 1 16.3027,91.06445 263,263 0 0 1 -1.4453,16.52539 263,263 0 0 0 88.6973,-118.46289 z"
       style="fill:#2361a2;fill-opacity:1;stroke-width:0.803022"
       id="path38" />
    <path
       d="m 1695.1387,620.60156 a 263,263 0 0 1 -88.6973,118.46289 263,263 0 0 1 -65.9238,158.36524 176,176.00009 0 0 0 11.2715,1.10937 176,176.00009 0 0 0 176,-176 176,176.00009 0 0 0 -32.6504,-101.9375 z"
       style="fill:#303979;stroke-width:0.803022"
       id="path37" />
  </g>
  <g
     id="g46"
     transform="translate(74,22)">
    <text
       xml:space="preserve"
       style="font-weight:bold;font-size:17.3333px;font-family:'SF Pro Display';-inkscape-font-specification:'SF Pro Display Bold';text-align:center;text-anchor:middle;fill:#ffffff;fill-opacity:1;stroke-width:75.5906"
       x="903.15424"
       y="630.77472"
       id="text43"
       inkscape:label="text43"><tspan
         sodipodi:role="line"
         id="tspan43"
         x="903.15424"
         y="630.77472"
         style="font-size:17.3333px">Diseño</tspan><tspan
         sodipodi:role="line"
         x="903.15424"
         y="652.44135"
         id="tspan44"
         style="font-size:17.3333px">de</tspan><tspan
         sodipodi:role="line"
         x="903.15424"
         y="674.10797"
         id="tspan45"
         style="font-size:17.3333px">información</tspan></text>
    <text
       xml:space="preserve"
       style="font-weight:bold;font-size:17.3333px;font-family:'SF Pro Display';-inkscape-font-specification:'SF Pro Display Bold';text-align:center;text-anchor:middle;fill:#ffffff;fill-opacity:1;stroke-width:75.5906"
       x="494.19971"
       y="917.61005"
       id="text32"><tspan
         sodipodi:role="line"
         id="tspan32"
         x="494.19971"
         y="917.61005">Comunicación</tspan><tspan
         sodipodi:role="line"
         x="494.19971"
         y="939.27667"
         id="tspan33">mercado</tspan></text>
    <text
       xml:space="preserve"
       style="font-weight:bold;font-size:26.6667px;font-family:'SF Pro Display';-inkscape-font-specification:'SF Pro Display Bold';text-align:center;text-anchor:middle;fill:#ffffff;fill-opacity:1;stroke-width:75.5906"
       x="1124.5654"
       y="917.29407"
       id="text34"
       transform="translate(-74,-22)"><tspan
         sodipodi:role="line"
         id="tspan34"
         x="1124.5654"
         y="917.29407"
         style="font-size:26.6667px">Look</tspan><tspan
         sodipodi:role="line"
         x="1124.5654"
         y="950.62744"
         id="tspan35"
         style="font-size:26.6667px">&amp;</tspan><tspan
         sodipodi:role="line"
         x="1124.5654"
         y="983.96082"
         id="tspan36"
         style="font-size:26.6667px">Feel</tspan></text>
    <text
       xml:space="preserve"
       style="font-weight:bold;font-size:17.3333px;font-family:'SF Pro Display';-inkscape-font-specification:'SF Pro Display Bold';text-align:center;text-anchor:middle;fill:#ffffff;fill-opacity:1;stroke-width:75.5906"
       x="751.82941"
       y="915.5647"
       id="text37"><tspan
         sodipodi:role="line"
         x="751.82941"
         y="915.5647"
         id="tspan38">Diseño de</tspan><tspan
         sodipodi:role="line"
         x="751.82941"
         y="937.23132"
         id="tspan6">superficie</tspan></text>
    <text
       xml:space="preserve"
       style="font-weight:bold;font-size:26.6667px;font-family:'SF Pro Display';-inkscape-font-specification:'SF Pro Display Bold';text-align:center;text-anchor:middle;fill:#ffffff;fill-opacity:1;stroke-width:75.5906"
       x="204.84689"
       y="893.17816"
       id="text39"><tspan
         sodipodi:role="line"
         id="tspan39"
         x="204.84689"
         y="893.17816"
         style="font-size:26.6667px">Caso</tspan><tspan
         sodipodi:role="line"
         x="204.84689"
         y="926.51154"
         id="tspan41"
         style="font-size:26.6667px">de</tspan><tspan
         sodipodi:role="line"
         x="204.84689"
         y="959.84491"
         id="tspan42"
         style="font-size:26.6667px">negocio</tspan></text>
    <text
       xml:space="preserve"
       style="font-weight:bold;font-size:16px;font-family:'SF Pro Display';-inkscape-font-specification:'SF Pro Display Bold';text-align:center;text-anchor:middle;fill:#ffffff;fill-opacity:1;stroke-width:75.5906"
       x="424.11374"
       y="536.16571"
       id="text16"><tspan
         sodipodi:role="line"
         id="tspan16"
         x="424.11374"
         y="536.16571"
         style="font-size:16px;text-align:center;text-anchor:middle;fill:#808080">Diseño</tspan><tspan
         sodipodi:role="line"
         x="424.11374"
         y="556.16571"
         id="tspan17"
         style="font-size:16px;text-align:center;text-anchor:middle;fill:#808080">interacción</tspan></text>
    <text
       xml:space="preserve"
       style="font-weight:bold;font-size:16px;font-family:'SF Pro Display';-inkscape-font-specification:'SF Pro Display Bold';text-align:center;text-anchor:middle;fill:#808080;fill-opacity:1;stroke-width:75.5906"
       x="514.56598"
       y="599.05255"
       id="text19"><tspan
         sodipodi:role="line"
         id="tspan19"
         x="514.56598"
         y="599.05255">Rendimiento</tspan></text>
    <text
       xml:space="preserve"
       style="font-weight:bold;font-size:16px;font-family:'SF Pro Display';-inkscape-font-specification:'SF Pro Display Bold';text-align:center;text-anchor:middle;fill:#808080;fill-opacity:1;stroke-width:75.5906"
       x="817.32922"
       y="619.96271"
       id="text20"
       transform="translate(-74,-22)"><tspan
         sodipodi:role="line"
         id="tspan20"
         x="817.32922"
         y="619.96271">Sencillez</tspan></text>
    <text
       xml:space="preserve"
       style="font-weight:bold;font-size:16px;font-family:'SF Pro Display';-inkscape-font-specification:'SF Pro Display Bold';text-align:center;text-anchor:middle;fill:#808080;fill-opacity:1;stroke-width:75.5906"
       x="461.60144"
       y="748.69165"
       id="text21"><tspan
         sodipodi:role="line"
         id="tspan21"
         x="461.60144"
         y="748.69165"
         style="text-align:center;text-anchor:middle;fill:#ffffff">Plan de</tspan><tspan
         sodipodi:role="line"
         x="461.60144"
         y="768.69165"
         id="tspan22"
         style="text-align:center;text-anchor:middle;fill:#ffffff">negocio</tspan></text>
    <text
       xml:space="preserve"
       style="font-weight:bold;font-size:16px;font-family:'SF Pro Display';-inkscape-font-specification:'SF Pro Display Bold';text-align:center;text-anchor:middle;fill:#ffffff;fill-opacity:1;stroke-width:75.5906"
       x="797.29779"
       y="750.53168"
       id="text23"><tspan
         sodipodi:role="line"
         id="tspan23"
         x="797.29779"
         y="750.53168">Guia de</tspan><tspan
         sodipodi:role="line"
         x="797.29779"
         y="770.53168"
         id="tspan24">estilos</tspan></text>
    <text
       xml:space="preserve"
       style="font-weight:bold;font-size:26.6667px;font-family:'SF Pro Display';-inkscape-font-specification:'SF Pro Display Bold';text-align:center;text-anchor:middle;fill:#ffffff;fill-opacity:1;stroke-width:75.5906"
       x="406.89957"
       y="865.32135"
       id="text25"
       transform="translate(-74,-22)"><tspan
         sodipodi:role="line"
         id="tspan25"
         x="406.89957"
         y="865.32135"
         style="font-size:26.6667px;text-align:center;text-anchor:middle">Análisis</tspan><tspan
         sodipodi:role="line"
         x="406.89957"
         y="898.65472"
         id="tspan26"
         style="font-size:26.6667px;text-align:center;text-anchor:middle">de negocio</tspan></text>
    <text
       xml:space="preserve"
       style="font-weight:bold;font-size:26.6667px;font-family:'SF Pro Display';-inkscape-font-specification:'SF Pro Display Bold';text-align:center;text-anchor:middle;fill:#ffffff;fill-opacity:1;stroke-width:75.5906"
       x="1004.4027"
       y="850.34088"
       id="text27"
       transform="translate(-74,-22)"><tspan
         sodipodi:role="line"
         x="1004.4027"
         y="850.34088"
         id="tspan28">Desarrollo</tspan><tspan
         sodipodi:role="line"
         x="1004.4027"
         y="883.67426"
         id="tspan29">diseño</tspan><tspan
         sodipodi:role="line"
         x="1004.4027"
         y="917.00763"
         id="tspan30">visual</tspan></text>
    <text
       xml:space="preserve"
       style="font-weight:bold;font-size:17.3333px;font-family:'SF Pro Display';-inkscape-font-specification:'SF Pro Display Bold';text-align:center;text-anchor:middle;fill:#ffffff;fill-opacity:1;stroke-width:75.5906"
       x="314.15195"
       y="499.72253"
       id="text31"><tspan
         sodipodi:role="line"
         id="tspan31"
         x="314.15195"
         y="499.72253"
         style="font-size:17.3333px;text-align:center;text-anchor:middle">Oferta</tspan></text>
    <text
       xml:space="preserve"
       style="font-size:42.6667px;text-align:center;text-anchor:middle;fill:#b6a62c;fill-opacity:1;stroke-width:75.5906"
       x="401.62292"
       y="177.71156"
       id="text1-7"
       inkscape:label="text1"
       transform="rotate(37.070638,-4.1916897,-121.35523)"><tspan
         sodipodi:role="line"
         id="tspan1-8"
         x="401.62292"
         y="177.71156"
         style="font-style:normal;font-variant:normal;font-weight:bold;font-stretch:normal;font-size:42.6667px;font-family:'SF Pro Display';-inkscape-font-specification:'SF Pro Display Bold';text-align:center;text-anchor:middle;fill:#b6a62c;fill-opacity:1">Lógica de</tspan><tspan
         sodipodi:role="line"
         x="401.62292"
         y="231.49474"
         style="font-style:normal;font-variant:normal;font-weight:bold;font-stretch:normal;font-size:42.6667px;font-family:'SF Pro Display';-inkscape-font-specification:'SF Pro Display Bold';text-align:center;text-anchor:middle;fill:#b6a62c;fill-opacity:1"
         id="tspan2">Negocio</tspan></text>
    <text
       xml:space="preserve"
       style="font-size:42.6667px;text-align:center;text-anchor:middle;fill:#4b833a;fill-opacity:0.952941;stroke-width:75.5906"
       x="625.74066"
       y="71.963905"
       id="text1-7-0"
       inkscape:label="text1"
       transform="rotate(-0.34776873)"><tspan
         sodipodi:role="line"
         x="625.74066"
         y="71.963905"
         style="font-style:normal;font-variant:normal;font-weight:bold;font-stretch:normal;font-size:42.6667px;font-family:'SF Pro Display';-inkscape-font-specification:'SF Pro Display Bold';text-align:center;text-anchor:middle;fill:#4b833a;fill-opacity:0.952941"
         id="tspan2-6">Tecnología</tspan></text>
    <text
       xml:space="preserve"
       style="font-size:42.6667px;text-align:center;text-anchor:middle;fill:#589bab;fill-opacity:1;stroke-width:75.5906"
       x="744.78412"
       y="1003.519"
       id="text1-7-0-2"
       inkscape:label="text1"
       transform="rotate(-36.103587,-70.750677,102.525)"><tspan
         sodipodi:role="line"
         x="744.78412"
         y="1003.519"
         style="font-style:normal;font-variant:normal;font-weight:bold;font-stretch:normal;font-size:42.6667px;font-family:'SF Pro Display';-inkscape-font-specification:'SF Pro Display Bold';text-align:center;text-anchor:middle;fill:#589bab;fill-opacity:1"
         id="tspan2-6-5">Lógica</tspan><tspan
         sodipodi:role="line"
         x="744.78412"
         y="1057.3021"
         style="font-style:normal;font-variant:normal;font-weight:bold;font-stretch:normal;font-size:42.6667px;font-family:'SF Pro Display';-inkscape-font-specification:'SF Pro Display Bold';text-align:center;text-anchor:middle;fill:#589bab;fill-opacity:1"
         id="tspan3">interactiva</tspan></text>
    <text
       xml:space="preserve"
       style="font-size:42.6667px;text-align:center;text-anchor:middle;fill:#8b3877;fill-opacity:1;stroke-width:75.5906"
       x="618.13403"
       y="1192.0339"
       id="text1-7-0-7"
       inkscape:label="text1"
       transform="rotate(-0.34776873)"><tspan
         sodipodi:role="line"
         x="618.13403"
         y="1192.0339"
         style="font-style:normal;font-variant:normal;font-weight:bold;font-stretch:normal;font-size:42.6667px;font-family:'SF Pro Display';-inkscape-font-specification:'SF Pro Display Bold';text-align:center;text-anchor:middle;fill:#8b3877;fill-opacity:1"
         id="tspan2-6-9">Comunicación</tspan><tspan
         sodipodi:role="line"
         x="618.13403"
         y="1245.3673"
         style="font-style:normal;font-variant:normal;font-weight:bold;font-stretch:normal;font-size:42.6667px;font-family:'SF Pro Display';-inkscape-font-specification:'SF Pro Display Bold';text-align:center;text-anchor:middle;fill:#8b3877;fill-opacity:1"
         id="tspan4">Corporativa</tspan></text>
    <text
       xml:space="preserve"
       style="font-size:26.6667px;text-align:center;text-anchor:middle;fill:#000000;fill-opacity:0.952941;stroke-width:75.5906"
       x="620.62372"
       y="649.76288"
       id="text1-7-0-1"
       inkscape:label="text1"
       transform="rotate(-0.34776873)"><tspan
         sodipodi:role="line"
         x="620.62372"
         y="649.76288"
         style="font-style:normal;font-variant:normal;font-weight:bold;font-stretch:normal;font-size:26.6667px;font-family:'SF Pro Display';-inkscape-font-specification:'SF Pro Display Bold';text-align:center;text-anchor:middle;fill:#000000;fill-opacity:0.952941"
         id="tspan2-6-7">UX</tspan><tspan
         sodipodi:role="line"
         x="620.62372"
         y="683.09625"
         style="font-style:normal;font-variant:normal;font-weight:bold;font-stretch:normal;font-size:26.6667px;font-family:'SF Pro Display';-inkscape-font-specification:'SF Pro Display Bold';text-align:center;text-anchor:middle;fill:#000000;fill-opacity:0.952941"
         id="tspan37">Experiencia</tspan><tspan
         sodipodi:role="line"
         x="620.62372"
         y="716.42963"
         style="font-style:normal;font-variant:normal;font-weight:bold;font-stretch:normal;font-size:26.6667px;font-family:'SF Pro Display';-inkscape-font-specification:'SF Pro Display Bold';text-align:center;text-anchor:middle;fill:#000000;fill-opacity:0.952941"
         id="tspan27">de Usuario</tspan></text>
    <text
       xml:space="preserve"
       style="font-size:17.3333px;text-align:center;text-anchor:middle;fill:#ffffff;fill-opacity:0.952941;stroke-width:75.5906"
       x="620.21216"
       y="804.92383"
       id="text1-7-0-1-8"
       inkscape:label="text1"
       transform="rotate(-0.34776873)"><tspan
         sodipodi:role="line"
         x="620.21216"
         y="804.92383"
         style="font-style:normal;font-variant:normal;font-weight:bold;font-stretch:normal;font-size:17.3333px;font-family:'SF Pro Display';-inkscape-font-specification:'SF Pro Display Bold';text-align:center;text-anchor:middle;fill:#ffffff;fill-opacity:0.952941"
         id="tspan5">Consistencia</tspan></text>
    <text
       xml:space="preserve"
       style="font-weight:bold;font-size:17.3333px;font-family:'SF Pro Display';-inkscape-font-specification:'SF Pro Display Bold';text-align:center;text-anchor:middle;fill:#ffffff;fill-opacity:1;stroke-width:75.5906"
       x="625.1615"
       y="893.71185"
       id="text6"><tspan
         sodipodi:role="line"
         x="625.1615"
         y="893.71185"
         id="tspan7">Diseño</tspan><tspan
         sodipodi:role="line"
         x="625.1615"
         y="915.37848"
         id="tspan8">de marca</tspan></text>
    <text
       xml:space="preserve"
       style="font-weight:bold;font-size:17.3333px;font-family:'SF Pro Display';-inkscape-font-specification:'SF Pro Display Bold';text-align:center;text-anchor:middle;fill:#ffffff;fill-opacity:1;stroke-width:75.5906"
       x="624.77148"
       y="478.05591"
       id="text9"><tspan
         sodipodi:role="line"
         id="tspan9"
         x="624.77148"
         y="478.05591">Release</tspan><tspan
         sodipodi:role="line"
         x="624.77148"
         y="499.72253"
         id="tspan10">Candidate</tspan></text>
    <text
       xml:space="preserve"
       style="font-weight:bold;font-size:26.6667px;font-family:'SF Pro Display';-inkscape-font-specification:'SF Pro Display Bold';text-align:center;text-anchor:middle;fill:#ffffff;fill-opacity:1;stroke-width:75.5906"
       x="624.30145"
       y="312.31393"
       id="text11"><tspan
         sodipodi:role="line"
         id="tspan11"
         x="624.30145"
         y="312.31393">Prototipado</tspan></text>
    <text
       xml:space="preserve"
       style="font-weight:bold;font-size:26.6667px;font-family:'SF Pro Display';-inkscape-font-specification:'SF Pro Display Bold';text-align:center;text-anchor:middle;fill:#ffffff;fill-opacity:1;stroke-width:75.5906"
       x="624.74146"
       y="183.50648"
       id="text12"><tspan
         sodipodi:role="line"
         id="tspan12"
         x="624.74146"
         y="183.50648">Funcionalidad</tspan></text>
    <text
       xml:space="preserve"
       style="font-weight:bold;font-size:17.3333px;font-family:'SF Pro Display';-inkscape-font-specification:'SF Pro Display Bold';text-align:center;text-anchor:middle;fill:#ffffff;fill-opacity:1;stroke-width:75.5906"
       x="424.81171"
       y="663.30756"
       id="text14"
       transform="translate(-74,-22)"><tspan
         sodipodi:role="line"
         id="tspan14"
         x="424.81171"
         y="663.30756"
         style="font-size:17.3333px;text-align:center;text-anchor:middle">Procesos</tspan><tspan
         sodipodi:role="line"
         x="424.81171"
         y="684.97418"
         style="font-size:17.3333px;text-align:center;text-anchor:middle"
         id="tspan15">Backend</tspan></text>
    <text
       xml:space="preserve"
       style="font-weight:bold;font-size:16px;font-family:'SF Pro Display';-inkscape-font-specification:'SF Pro Display Bold';text-align:center;text-anchor:middle;fill:#808080;fill-opacity:1;stroke-width:75.5906"
       x="907.07983"
       y="560.24384"
       id="text20-8"
       transform="translate(-74,-22)"><tspan
         sodipodi:role="line"
         id="tspan20-0"
         x="907.07983"
         y="560.24384">Ingeniería</tspan><tspan
         sodipodi:role="line"
         x="907.07983"
         y="580.24384"
         id="tspan46">usabilidad</tspan></text>
    <text
       xml:space="preserve"
       style="font-weight:bold;font-size:17.3333px;font-family:'SF Pro Display';-inkscape-font-specification:'SF Pro Display Bold';text-align:center;text-anchor:middle;fill:#ffffff;fill-opacity:1;stroke-width:75.5906"
       x="794.18549"
       y="426.67999"
       id="text43-8"><tspan
         sodipodi:role="line"
         id="tspan43-4"
         x="794.18549"
         y="426.67999"
         style="font-size:17.3333px">Arquitectura</tspan><tspan
         sodipodi:role="line"
         x="794.18549"
         y="448.34662"
         id="tspan44-2"
         style="font-size:17.3333px">de</tspan><tspan
         sodipodi:role="line"
         x="794.18549"
         y="470.01324"
         id="tspan45-5"
         style="font-size:17.3333px">información</tspan></text>
    <text
       xml:space="preserve"
       style="font-weight:bold;font-size:17.3333px;font-family:'SF Pro Display';-inkscape-font-specification:'SF Pro Display Bold';text-align:center;text-anchor:middle;fill:#ffffff;fill-opacity:1;stroke-width:75.5906"
       x="943.47919"
       y="499.72253"
       id="text9-9"><tspan
         sodipodi:role="line"
         x="943.47919"
         y="499.72253"
         id="tspan10-0">Interfaz</tspan></text>
    <text
       xml:space="preserve"
       style="font-weight:bold;font-size:17.3333px;font-family:'SF Pro Display';-inkscape-font-specification:'SF Pro Display Bold';text-align:center;text-anchor:middle;fill:#ffffff;fill-opacity:1;stroke-width:75.5906"
       x="435.39023"
       y="437.11462"
       id="text9-0"><tspan
         sodipodi:role="line"
         x="435.39023"
         y="437.11462"
         id="tspan10-4">Procesos</tspan><tspan
         sodipodi:role="line"
         x="435.39023"
         y="458.78125"
         id="tspan13">Frontend</tspan></text>
    <text
       xml:space="preserve"
       style="font-size:17.3333px;text-align:center;text-anchor:middle;fill:#ffffff;fill-opacity:0.952941;stroke-width:75.5906"
       x="618.4455"
       y="1052.4924"
       id="text1-7-0-1-8-0"
       inkscape:label="text1"
       transform="rotate(-0.34776873)"><tspan
         sodipodi:role="line"
         x="618.4455"
         y="1052.4924"
         style="font-style:normal;font-variant:normal;font-weight:bold;font-stretch:normal;font-size:17.3333px;font-family:'SF Pro Display';-inkscape-font-specification:'SF Pro Display Bold';text-align:center;text-anchor:middle;fill:#ffffff;fill-opacity:0.952941"
         id="tspan5-7">Marketing</tspan></text>
    <text
       xml:space="preserve"
       style="font-size:42.6667px;text-align:center;text-anchor:middle;fill:#9b2121;fill-opacity:1;stroke-width:75.5906"
       x="-472.05975"
       y="882.48364"
       id="text1"
       inkscape:label="text1"
       transform="rotate(-30.834848)"><tspan
         sodipodi:role="line"
         id="tspan1"
         x="-472.05975"
         y="882.48364"
         style="font-style:normal;font-variant:normal;font-weight:bold;font-stretch:normal;font-size:42.6667px;font-family:'SF Pro Display';-inkscape-font-specification:'SF Pro Display Bold';text-align:center;text-anchor:middle">Negocio</tspan></text>
    <text
       xml:space="preserve"
       style="font-size:42.6667px;text-align:center;text-anchor:middle;fill:#2d366c;fill-opacity:1;stroke-width:75.5906"
       x="1619.1897"
       y="148.16667"
       id="text1-79"
       inkscape:label="text1"
       transform="rotate(33.774527,-0.76578064,-132.87874)"><tspan
         sodipodi:role="line"
         id="tspan1-3"
         x="1619.1897"
         y="148.16667"
         style="font-style:normal;font-variant:normal;font-weight:bold;font-stretch:normal;font-size:42.6667px;font-family:'SF Pro Display';-inkscape-font-specification:'SF Pro Display Bold';text-align:center;text-anchor:middle;fill:#2d366c;fill-opacity:1">Diseño</tspan></text>
  </g>
</svg>
